<?xml version="1.0" encoding="UTF-8"?>
<svg width="12px" height="17px" viewBox="0 0 12 17" version="1.1" xmlns="http://www.w3.org/2000/svg" xmlns:xlink="http://www.w3.org/1999/xlink">
    <!-- Generator: Sketch 52.5 (67469) - http://www.bohemiancoding.com/sketch -->
    <title>Shape</title>
    <desc>Created with Sketch.</desc>
    <g id="Page-1" stroke="none" stroke-width="1" fill="none" fill-rule="evenodd">
        <g id="Home" transform="translate(-942.000000, -4339.000000)" fill="#FFFFFF" fill-rule="nonzero">
            <g id="Group-31" transform="translate(-137.000000, 4087.000000)">
                <g id="Group-11" transform="translate(137.000000, 57.000000)">
                    <g id="Group-29" transform="translate(940.000000, 150.000000)">
                        <g id="placeholder" transform="translate(2.000000, 45.000000)">
                            <path d="M10.1353846,1.73616364 C9.02092308,0.616636364 7.53907692,0 5.96307692,0 C4.38676923,0 2.90523077,0.616636364 1.79076923,1.73616364 C-0.271692308,3.80769091 -0.528,7.70532727 1.23569231,10.0667818 L5.96307692,16.9248909 L10.6833846,10.0763636 C12.4541538,7.70532727 12.1978462,3.80769091 10.1353846,1.73616364 Z M6.01753846,8.03636364 C4.83015385,8.03636364 3.86369231,7.06550909 3.86369231,5.87272727 C3.86369231,4.67994545 4.83015385,3.70909091 6.01753846,3.70909091 C7.20492308,3.70909091 8.17138462,4.67994545 8.17138462,5.87272727 C8.17138462,7.06550909 7.20492308,8.03636364 6.01753846,8.03636364 Z" id="Shape"></path>
                        </g>
                    </g>
                </g>
            </g>
        </g>
    </g>
</svg>