<?xml version="1.0" encoding="UTF-8"?>
<svg width="12px" height="8px" viewBox="0 0 12 8" version="1.1" xmlns="http://www.w3.org/2000/svg" xmlns:xlink="http://www.w3.org/1999/xlink">
    <!-- Generator: Sketch 52.5 (67469) - http://www.bohemiancoding.com/sketch -->
    <title>Path</title>
    <desc>Created with Sketch.</desc>
    <g id="Page-1" stroke="none" stroke-width="1" fill="none" fill-rule="evenodd">
        <g id="Home" transform="translate(-484.000000, -2849.000000)" fill="#C50F42">
            <g id="Group-21" transform="translate(0.000000, 2545.000000)">
                <g id="Group-15" transform="translate(140.000000, 121.000000)">
                    <g id="Group-9" transform="translate(0.000000, 89.000000)">
                        <g id="Group-18">
                            <g id="Group-17" transform="translate(262.000000, 86.000000)">
                                <path d="M93.8291896,11.6377204 L90.2604164,8.19686022 C90.0426766,7.98692473 89.6895465,7.98692473 89.4718067,8.19686022 C89.2540223,8.40683871 89.2540223,8.74722581 89.4718067,8.9572043 L92.0886543,11.4802581 L82.5576208,11.4802581 C82.2496803,11.4802581 82,11.7209892 82,12.0178925 C82,12.3147527 82.2496803,12.5555269 82.5576208,12.5555269 L92.0886543,12.5555269 L89.4718959,15.0785806 C89.2541115,15.2885591 89.2541115,15.6289462 89.4718959,15.8389247 C89.5807435,15.943828 89.7234944,15.9963871 89.8662007,15.9963871 C90.0089071,15.9963871 90.1516134,15.943828 90.2605056,15.8389247 L93.8291896,12.3980645 C94.046974,12.188086 94.046974,11.8476989 93.8291896,11.6377204 Z" id="Path"></path>
                            </g>
                        </g>
                    </g>
                </g>
            </g>
        </g>
    </g>
</svg>