<?xml version="1.0" encoding="UTF-8"?>
<svg width="30px" height="30px" viewBox="0 0 30 30" version="1.1" xmlns="http://www.w3.org/2000/svg" xmlns:xlink="http://www.w3.org/1999/xlink">
    <!-- Generator: Sketch 52.5 (67469) - http://www.bohemiancoding.com/sketch -->
    <title>Shape</title>
    <desc>Created with Sketch.</desc>
    <g id="Page-1" stroke="none" stroke-width="1" fill="none" fill-rule="evenodd">
        <g id="Home" transform="translate(-140.000000, -3742.000000)" fill="#C50F42" fill-rule="nonzero">
            <g id="Group-30" transform="translate(0.000000, 3275.000000)">
                <g id="Group-27" transform="translate(140.000000, 172.000000)">
                    <g id="Group-25" transform="translate(0.000000, 295.000000)">
                        <g id="Group-15">
                            <g id="puzzle">
                                <path d="M28.1794872,1.87179487 C27.0769231,0.769230769 25.6153846,0.153846154 24.0512821,0.153846154 C22.4871795,0.153846154 21.025641,0.769230769 19.9230769,1.87179487 C19.4358974,2.35897436 19.0512821,2.92307692 18.7692308,3.53846154 L15.7179487,0.487179487 C15.3076923,0.0769230769 14.6410256,0.0769230769 14.2564103,0.487179487 L0.41025641,14.3333333 C2.19269047e-15,14.7435897 2.19269047e-15,15.3846154 0.41025641,15.7948718 L14.2564103,29.6410256 C14.4615385,29.8461538 14.7179487,29.9487179 15,29.9487179 C15.2820513,29.9487179 15.5384615,29.8461538 15.7435897,29.6410256 L20.1538462,25.2307692 C20.4358974,24.9487179 20.5384615,24.5128205 20.3846154,24.1282051 C20.2307692,23.7435897 19.8974359,23.4871795 19.4871795,23.4615385 C18.5897436,23.3846154 17.7435897,23 17.1025641,22.3846154 C16.3846154,21.6666667 16,20.7179487 16,19.7179487 C16,18.7179487 16.3846154,17.7692308 17.1025641,17.0512821 C17.8205128,16.3333333 18.7692308,15.9487179 19.7692308,15.9487179 C20.7692308,15.9487179 21.7179487,16.3333333 22.4358974,17.0512821 C23.0769231,17.6923077 23.4615385,18.5384615 23.5128205,19.4358974 C23.5384615,19.8461538 23.7948718,20.2051282 24.1794872,20.3333333 C24.5641026,20.4871795 25,20.3846154 25.2820513,20.1025641 L29.5641026,15.8205128 C29.7692308,15.6153846 29.8717949,15.3589744 29.8717949,15.0769231 C29.8717949,14.7948718 29.7692308,14.5384615 29.5641026,14.3333333 L26.5128205,11.2820513 C27.1282051,11 27.6923077,10.5897436 28.1794872,10.1282051 C30.4615385,7.84615385 30.4615385,4.12820513 28.1794872,1.87179487 Z M26.7179487,8.64102564 C26.1025641,9.25641026 25.3076923,9.64102564 24.4358974,9.71794872 C24.025641,9.76923077 23.6923077,10.025641 23.5641026,10.4102564 C23.4358974,10.7948718 23.5128205,11.2051282 23.8205128,11.4871795 L27.3846154,15.0512821 L25.1282051,17.3076923 C24.8461538,16.6666667 24.4358974,16.0512821 23.9230769,15.5641026 C22.8205128,14.4615385 21.3589744,13.8461538 19.7948718,13.8461538 C18.2307692,13.8461538 16.7692308,14.4615385 15.6666667,15.5641026 C14.5641026,16.6666667 13.9487179,18.1282051 13.9487179,19.6923077 C13.9487179,21.2564103 14.5641026,22.7179487 15.6666667,23.8205128 C16.1794872,24.3333333 16.7692308,24.7435897 17.4102564,25.025641 L15.025641,27.4102564 L2.61538462,15.0512821 L14.974359,2.69230769 L18.5384615,6.25641026 C18.8205128,6.53846154 19.2564103,6.64102564 19.6153846,6.51282051 C20,6.38461538 20.2564103,6.02564103 20.3076923,5.64102564 C20.3846154,4.76923077 20.7692308,3.97435897 21.3846154,3.35897436 C22.1025641,2.64102564 23.0512821,2.25641026 24.0512821,2.25641026 C25.0512821,2.25641026 26,2.64102564 26.7179487,3.35897436 C28.1794872,4.79487179 28.1794872,7.17948718 26.7179487,8.64102564 Z" id="Shape"></path>
                            </g>
                        </g>
                    </g>
                </g>
            </g>
        </g>
    </g>
</svg>