<?xml version="1.0" encoding="UTF-8"?>
<svg width="14px" height="12px" viewBox="0 0 14 12" version="1.1" xmlns="http://www.w3.org/2000/svg" xmlns:xlink="http://www.w3.org/1999/xlink">
    <!-- Generator: Sketch 52.5 (67469) - http://www.bohemiancoding.com/sketch -->
    <title>envelope (2)</title>
    <desc>Created with Sketch.</desc>
    <g id="Page-1" stroke="none" stroke-width="1" fill="none" fill-rule="evenodd">
        <g id="Home" transform="translate(-941.000000, -4399.000000)" fill="#FFFFFF">
            <g id="Group-31" transform="translate(-137.000000, 4087.000000)">
                <g id="Group-11" transform="translate(137.000000, 57.000000)">
                    <g id="Group-29" transform="translate(940.000000, 150.000000)">
                        <g id="envelope-(2)" transform="translate(1.000000, 105.000000)">
                            <path d="M1.34274219,3.71401489 C1.51971094,3.85000496 2.05316016,4.25389578 2.94311719,4.92547891 C3.83310156,5.59706203 4.51489062,6.11416377 4.98851172,6.4768139 C5.04054688,6.51656576 5.15109766,6.60297767 5.32021875,6.73616873 C5.48936719,6.86944913 5.62991406,6.97715136 5.74175,7.05930521 C5.85366797,7.14142928 5.98896484,7.23355831 6.14777734,7.33554342 C6.30653516,7.43743921 6.4561875,7.51408437 6.59670703,7.56482382 C6.73725391,7.61598015 6.86735547,7.6413201 6.98703906,7.6413201 L6.99488672,7.6413201 L7.00276172,7.6413201 C7.12244531,7.6413201 7.25260156,7.61595037 7.39314844,7.56482382 C7.53361328,7.51408437 7.68340234,7.43734988 7.84202344,7.33554342 C8.00072656,7.23343921 8.13602344,7.1413995 8.24794141,7.05930521 C8.35985938,6.97715136 8.50029688,6.86944913 8.6695,6.73616873 C8.83859375,6.60285856 8.94928125,6.51656576 9.00131641,6.4768139 C9.48005078,6.11416377 10.6980234,5.19314144 12.6548516,3.71383623 C13.0347656,3.42491315 13.3521719,3.07628784 13.6071523,2.66819851 C13.8623242,2.26028784 13.9897734,1.83236725 13.9897734,1.38467494 C13.9897734,1.01056079 13.8660977,0.690312655 13.6188555,0.423960298 C13.3716406,0.157548387 13.0788437,0.0244168734 12.7406562,0.0244168734 L1.24903516,0.0244168734 C0.8483125,0.0244168734 0.539929688,0.171751861 0.323941406,0.466421836 C0.107980469,0.761151365 0,1.12954839 0,1.57158313 C0,1.92863524 0.143171875,2.31555335 0.429378906,2.73209926 C0.715558594,3.14867494 1.02011328,3.47600993 1.34274219,3.71401489 Z" id="Path"></path>
                            <path d="M13.209,4.6235732 C11.5020938,5.88166749 10.206,6.85941439 9.32134766,7.55660546 C9.02469531,7.79455087 8.78404297,7.98029777 8.59922656,8.1133995 C8.41441016,8.24659057 8.16861719,8.38261042 7.86149219,8.5213995 C7.55447656,8.66039702 7.26835156,8.72968734 7.00287109,8.72968734 L6.99491406,8.72968734 L6.98706641,8.72968734 C6.72164062,8.72968734 6.43535156,8.66039702 6.12833594,8.5213995 C5.82132031,8.38261042 5.57536328,8.24659057 5.39060156,8.1133995 C5.20589453,7.98029777 4.96516016,7.79455087 4.66853516,7.55660546 C3.96588281,6.99555335 2.67257812,6.0177469 0.788566406,4.6235732 C0.491832031,4.40834739 0.229003906,4.16164764 0,3.88398015 L0,10.6339057 C0,11.0081985 0.122253906,11.328268 0.366898437,11.5946501 C0.611488281,11.8611216 0.905597656,11.9943127 1.24911719,11.9943127 L12.7407656,11.9943127 C13.0842031,11.9943127 13.3782852,11.8611216 13.6229023,11.5946501 C13.8676016,11.3281787 13.9898008,11.0082283 13.9898008,10.6339057 L13.9898008,3.88398015 C13.7659648,4.15590074 13.5058164,4.4026005 13.209,4.6235732 Z" id="Path"></path>
                        </g>
                    </g>
                </g>
            </g>
        </g>
    </g>
</svg>