<?xml version="1.0" encoding="UTF-8"?>
<svg width="16px" height="16px" viewBox="0 0 16 16" version="1.1" xmlns="http://www.w3.org/2000/svg" xmlns:xlink="http://www.w3.org/1999/xlink">
    <!-- Generator: Sketch 52.5 (67469) - http://www.bohemiancoding.com/sketch -->
    <title>clock-circular-outline (1)</title>
    <desc>Created with Sketch.</desc>
    <g id="Page-1" stroke="none" stroke-width="1" fill="none" fill-rule="evenodd">
        <g id="Home" transform="translate(-280.000000, -2051.000000)" fill="#808080">
            <g id="Group-7-+-Group-7-Copy-5-Mask" transform="translate(-230.000000, 1715.000000)">
                <g id="Group-7" transform="translate(240.000000, 160.000000)">
                    <g id="Group-7-Copy">
                        <g id="Group-8" transform="translate(270.000000, 174.000000)">
                            <g id="clock-circular-outline-(1)" transform="translate(0.000000, 2.000000)">
                                <path d="M7.93142857,0 C3.55804082,0 0,3.55804082 0,7.93142857 C0,12.3048163 3.55804082,15.8628571 7.93142857,15.8628571 C12.3048163,15.8628571 15.8628571,12.3048163 15.8628571,7.93142857 C15.8628571,3.55804082 12.3048163,0 7.93142857,0 Z M7.93142857,14.1751837 C4.48865306,14.1751837 1.6875102,11.3743673 1.6875102,7.93142857 C1.6875102,4.4884898 4.48865306,1.68767347 7.93142857,1.68767347 C11.3742041,1.68767347 14.1753469,4.4884898 14.1753469,7.93142857 C14.1753469,11.3743673 11.3742041,14.1751837 7.93142857,14.1751837 Z" id="Shape" fill-rule="nonzero"></path>
                                <path d="M12.0649796,7.68653061 L8.50057143,7.68653061 L8.50057143,3.40081633 C8.50057143,3.04016327 8.20816327,2.7477551 7.8475102,2.7477551 C7.48685714,2.7477551 7.19444898,3.04016327 7.19444898,3.40081633 L7.19444898,8.33959184 C7.19444898,8.7002449 7.48685714,8.99265306 7.8475102,8.99265306 L12.0649796,8.99265306 C12.4256327,8.99265306 12.7180408,8.7002449 12.7180408,8.33959184 C12.7180408,7.97893878 12.4256327,7.68653061 12.0649796,7.68653061 Z" id="Path"></path>
                            </g>
                        </g>
                    </g>
                </g>
            </g>
        </g>
    </g>
</svg>