<?xml version="1.0" encoding="UTF-8"?>
<svg width="14px" height="14px" viewBox="0 0 14 14" version="1.1" xmlns="http://www.w3.org/2000/svg" xmlns:xlink="http://www.w3.org/1999/xlink">
    <!-- Generator: Sketch 52.5 (67469) - http://www.bohemiancoding.com/sketch -->
    <title>Path</title>
    <desc>Created with Sketch.</desc>
    <g id="Page-1" stroke="none" stroke-width="1" fill="none" fill-rule="evenodd">
        <g id="Home" transform="translate(-240.000000, -33.000000)" fill="#C50F42">
            <g id="2">
                <g id="Group" transform="translate(240.000000, 30.000000)">
                    <g id="call-answer" transform="translate(0.000000, 3.000000)">
                        <path d="M13.6499198,11.0665575 L11.4935587,8.90375862 C11.0640516,8.47474713 10.3527794,8.48778161 9.90830946,8.93368966 L8.8219255,10.022954 C8.7532894,9.98501724 8.68224642,9.9453908 8.60755301,9.90335057 C7.92151289,9.52213218 6.98255014,8.99962644 5.99448711,8.008 C5.0034957,7.01428161 4.48200573,6.07117241 4.10071633,5.38271839 C4.06048138,5.30978161 4.02193123,5.23945977 3.98386246,5.17267816 L4.71298567,4.44254598 L5.07144986,4.0826092 C5.51660172,3.63605747 5.52887679,2.92294253 5.10037249,2.49268391 L2.94401146,0.329643678 C2.51550716,-0.100011494 1.80391404,-0.0869770115 1.35876218,0.359574713 L0.751025788,0.972557471 L0.767633238,0.989091954 C0.563851003,1.24986207 0.39356447,1.55062069 0.266842407,1.87495402 C0.150028653,2.18367816 0.0773008596,2.47828161 0.0440458453,2.77348851 C-0.240687679,5.14077586 0.837994269,7.30429885 3.76539828,10.2401552 C7.81195989,14.2980632 11.072957,13.9915115 11.213639,13.976546 C11.5200344,13.9398161 11.8136734,13.8663966 12.112086,13.7501724 C12.4326819,13.6245747 12.7323782,13.4540402 12.9922407,13.2501149 L13.0055186,13.2619425 L13.6211977,12.6573276 C14.0654269,12.2108563 14.0782235,11.4975 13.6499198,11.0665575 Z" id="Path"></path>
                    </g>
                </g>
            </g>
        </g>
    </g>
</svg>