<?xml version="1.0" encoding="UTF-8"?>
<svg width="14px" height="14px" viewBox="0 0 14 14" version="1.1" xmlns="http://www.w3.org/2000/svg" xmlns:xlink="http://www.w3.org/1999/xlink">
    <!-- Generator: Sketch 52.5 (67469) - http://www.bohemiancoding.com/sketch -->
    <title>Path</title>
    <desc>Created with Sketch.</desc>
    <g id="Page-1" stroke="none" stroke-width="1" fill="none" fill-rule="evenodd">
        <g id="Home" transform="translate(-941.000000, -4369.000000)" fill="#FFFFFF">
            <g id="Group-31" transform="translate(-137.000000, 4087.000000)">
                <g id="Group-11" transform="translate(137.000000, 57.000000)">
                    <g id="Group-29" transform="translate(940.000000, 150.000000)">
                        <path d="M14.6499337,86.0507234 L12.4935727,83.8879245 C12.0640655,83.458913 11.3527933,83.4719475 10.9083234,83.9178555 L9.82193945,85.0071199 C9.75330335,84.9691831 9.68226037,84.9295567 9.60756696,84.8875165 C8.92152684,84.5062981 7.98256409,83.9837923 6.99450106,82.9921659 C6.00350965,81.9984475 5.48201968,81.0553383 5.10073028,80.3668843 C5.06049532,80.2939475 5.02194518,80.2236257 4.98387641,80.1568441 L5.71299962,79.4267119 L6.07146381,79.0667751 C6.51661567,78.6202234 6.52889074,77.9071084 6.10038644,77.4768498 L3.94402541,75.3138096 C3.51552111,74.8841544 2.80392799,74.8971889 2.35877613,75.3437406 L1.75103974,75.9567234 L1.76764719,75.9732578 C1.56386495,76.234028 1.39357842,76.5347866 1.26685636,76.8591199 C1.1500426,77.1678441 1.07731481,77.4624475 1.04405979,77.7576544 C0.75932627,80.1249418 1.83800822,82.2884647 4.76541223,85.2243211 C8.81197383,89.2822291 12.072971,88.9756774 12.2136529,88.9607119 C12.5200483,88.923982 12.8136873,88.8505624 13.1120999,88.7343383 C13.4326959,88.6087406 13.7323922,88.4382061 13.9922546,88.2342808 L14.0055326,88.2461084 L14.6212117,87.6414935 C15.0654409,87.1950222 15.0782374,86.4816659 14.6499337,86.0507234 Z" id="Path"></path>
                    </g>
                </g>
            </g>
        </g>
    </g>
</svg>