<?xml version="1.0" encoding="UTF-8"?>
<svg width="16px" height="16px" viewBox="0 0 16 16" version="1.1" xmlns="http://www.w3.org/2000/svg" xmlns:xlink="http://www.w3.org/1999/xlink">
    <!-- Generator: Sketch 52.5 (67469) - http://www.bohemiancoding.com/sketch -->
    <title>Path Copy 4</title>
    <desc>Created with Sketch.</desc>
    <g id="Page-1" stroke="none" stroke-width="1" fill="none" fill-rule="evenodd">
        <g id="Home" transform="translate(-114.000000, -2051.000000)" fill="#FF6C15">
            <g id="Group-7-+-Group-7-Copy-5-Mask" transform="translate(-230.000000, 1715.000000)">
                <g id="Group-7" transform="translate(240.000000, 160.000000)">
                    <g id="Group-7-Copy">
                        <g id="Group-6" transform="translate(30.000000, 176.000000)">
                            <path d="M82.5010162,0.6064 L84.4834162,5.2984 L89.5586162,5.7344 C89.9106162,5.7648 90.0538162,6.204 89.7866162,6.4352 L85.9370162,9.7704 L87.0906162,14.732 C87.1706162,15.0768 86.7970162,15.348 86.4946162,15.1648 L82.1330162,12.5344 L77.7714162,15.1648 C77.4682162,15.3472 77.0954162,15.076 77.1754162,14.732 L78.3290162,9.7704 L74.4786162,6.4344 C74.2114162,6.2032 74.3538162,5.764 74.7066162,5.7336 L79.7818162,5.2976 L81.7642162,0.6064 C81.9018162,0.28 82.3634162,0.28 82.5010162,0.6064 Z" id="Path-Copy-4"></path>
                        </g>
                    </g>
                </g>
            </g>
        </g>
    </g>
</svg>