<?xml version="1.0" encoding="UTF-8"?>
<svg width="22px" height="19px" viewBox="0 0 22 19" version="1.1" xmlns="http://www.w3.org/2000/svg" xmlns:xlink="http://www.w3.org/1999/xlink">
    <!-- Generator: Sketch 52.5 (67469) - http://www.bohemiancoding.com/sketch -->
    <title>envelope (2)</title>
    <desc>Created with Sketch.</desc>
    <g id="Page-1" stroke="none" stroke-width="1" fill="none" fill-rule="evenodd">
        <g id="Contact" transform="translate(-574.000000, -1283.000000)" fill="#C50F42">
            <g id="Group-8" transform="translate(0.000000, 1011.000000)">
                <g id="Group-7" transform="translate(130.000000, 226.000000)">
                    <g id="Group-5" transform="translate(310.000000, 0.000000)">
                        <g id="envelope-(2)" transform="translate(134.000000, 46.000000)">
                            <path d="M2.11002344,5.88052357 C2.38811719,6.09584119 3.22639453,6.73533499 4.62489844,7.79867494 C6.02344531,8.86201489 7.09482813,9.68075931 7.83908984,10.2549553 C7.92085938,10.3178958 8.09458203,10.4547146 8.36034375,10.6656005 C8.62614844,10.8766278 8.84700781,11.0471563 9.02275,11.1772333 C9.19862109,11.307263 9.41123047,11.453134 9.66079297,11.6146104 C9.91026953,11.7759454 10.1454375,11.8973002 10.3662539,11.9776377 C10.5871133,12.0586352 10.7915586,12.0987568 10.9796328,12.0987568 L10.9919648,12.0987568 L11.0043398,12.0987568 C11.1924141,12.0987568 11.3969453,12.0585881 11.6178047,11.9776377 C11.8385352,11.8973002 12.073918,11.775804 12.3231797,11.6146104 C12.5725703,11.4529454 12.7851797,11.3072159 12.9610508,11.1772333 C13.1369219,11.0471563 13.3576094,10.8766278 13.6235,10.6656005 C13.8892188,10.4545261 14.0631563,10.3178958 14.1449258,10.2549553 C14.8972227,9.68075931 16.8111797,8.22247395 19.8861953,5.88024069 C20.4832031,5.42277916 20.9819844,4.87078908 21.382668,4.22464764 C21.7836523,3.57878908 21.9839297,2.90124814 21.9839297,2.19240199 C21.9839297,1.60005459 21.789582,1.09299504 21.4010586,0.671270471 C21.0125781,0.249451613 20.5524687,0.0386600496 20.0210313,0.0386600496 L1.96276953,0.0386600496 C1.3330625,0.0386600496 0.848460938,0.271940447 0.509050781,0.738501241 C0.169683594,1.20515633 0,1.78845161 0,2.48833995 C0,3.05367246 0.224984375,3.6662928 0.674738281,4.32582382 C1.12444922,4.98540199 1.60303516,5.50368238 2.11002344,5.88052357 Z" id="Path"></path>
                            <path d="M20.757,7.32065757 C18.0747187,9.3126402 16.038,10.8607395 14.647832,11.9646253 C14.1816641,12.3413722 13.8034961,12.6354715 13.5130703,12.8462159 C13.2226445,13.0571017 12.8363984,13.2724665 12.3537734,13.4922159 C11.8713203,13.7122953 11.4216953,13.822005 11.0045117,13.822005 L10.9920078,13.822005 L10.9796758,13.822005 C10.5625781,13.822005 10.1126953,13.7122953 9.63024219,13.4922159 C9.14778906,13.2724665 8.76128516,13.0571017 8.47094531,12.8462159 C8.18069141,12.6354715 7.80239453,12.3413722 7.33626953,11.9646253 C6.23210156,11.0762928 4.19976562,9.52809926 1.23917578,7.32065757 C0.772878906,6.97988337 0.359863281,6.58927543 0,6.14963524 L0,16.8370174 C0,17.4296476 0.192113281,17.9364243 0.576554687,18.358196 C0.960910156,18.7801092 1.42308203,18.990995 1.96289844,18.990995 L20.0212031,18.990995 C20.5608906,18.990995 21.0230195,18.7801092 21.407418,18.358196 C21.7919453,17.9362829 21.9839727,17.4296948 21.9839727,16.8370174 L21.9839727,6.14963524 C21.6322305,6.58017618 21.2234258,6.97078412 20.757,7.32065757 Z" id="Path"></path>
                        </g>
                    </g>
                </g>
            </g>
        </g>
    </g>
</svg>