<?xml version="1.0" encoding="UTF-8"?>
<svg width="23px" height="23px" viewBox="0 0 23 23" version="1.1" xmlns="http://www.w3.org/2000/svg" xmlns:xlink="http://www.w3.org/1999/xlink">
    <!-- Generator: Sketch 52.5 (67469) - http://www.bohemiancoding.com/sketch -->
    <title>Path</title>
    <desc>Created with Sketch.</desc>
    <g id="Page-1" stroke="none" stroke-width="1" fill="none" fill-rule="evenodd">
        <g id="Contact" transform="translate(-264.000000, -1281.000000)" fill="#C50F42">
            <g id="Group-8" transform="translate(0.000000, 1011.000000)">
                <g id="Group-7" transform="translate(130.000000, 226.000000)">
                    <g id="Group-5">
                        <path d="M156.484382,62.1918917 L152.932391,58.6314549 C152.2249,57.9252087 151.053281,57.9466663 150.321144,58.6807278 L148.531635,60.4738937 C148.418577,60.4114415 148.301554,60.3462077 148.178517,60.2770004 C147.048462,59.6494321 145.501788,58.7892741 143.874235,57.1568415 C142.241859,55.5209652 141.382852,53.9684025 140.754786,52.8350576 C140.688511,52.7149878 140.62501,52.5992228 140.562303,52.4892858 L141.763326,51.2873295 L142.353794,50.6947954 C143.087055,49.9596742 143.107274,48.7857321 142.401435,48.0774329 L138.849444,44.5165987 C138.143605,43.809293 136.971458,43.8307506 136.238197,44.5658717 L135.237124,45.5749745 L135.26448,45.6021939 C134.928807,46.0314781 134.648308,46.5265922 134.43957,47.0605153 C134.247152,47.5687423 134.127354,48.0537236 134.072576,48.5396983 C133.603559,52.4367676 135.38038,55.9983965 140.202445,60.8314539 C146.868004,67.5116523 152.239569,67.0070015 152.471303,66.982365 C152.976002,66.9218996 153.459688,66.8010351 153.951238,66.6097049 C154.479329,66.4029438 154.972993,66.122207 155.401043,65.7865017 L155.422914,65.8059725 L156.437071,64.8106449 C157.168812,64.0756562 157.189891,62.9013167 156.484382,62.1918917 Z" id="Path"></path>
                    </g>
                </g>
            </g>
        </g>
    </g>
</svg>