<?xml version="1.0" encoding="UTF-8"?>
<svg width="30px" height="32px" viewBox="0 0 30 32" version="1.1" xmlns="http://www.w3.org/2000/svg" xmlns:xlink="http://www.w3.org/1999/xlink">
    <!-- Generator: Sketch 52.5 (67469) - http://www.bohemiancoding.com/sketch -->
    <title>domain-registration</title>
    <desc>Created with Sketch.</desc>
    <g id="Page-1" stroke="none" stroke-width="1" fill="none" fill-rule="evenodd">
        <g id="Contact" transform="translate(-1190.000000, -1276.000000)" fill="#C50F42">
            <g id="Group-8" transform="translate(0.000000, 1011.000000)">
                <g id="Group-7" transform="translate(130.000000, 226.000000)">
                    <g id="Group-5" transform="translate(930.000000, 0.000000)">
                        <g id="domain-registration" transform="translate(130.000000, 39.000000)">
                            <path d="M5.501,6.249 C5.941,6.584 6.393,6.903 6.862,7.188 C6.623,7.764 6.411,8.372 6.221,9 L8.148,9 C8.258,8.678 8.363,8.351 8.488,8.045 C9.381,8.454 10.312,8.766 11.267,9 L18.738,9 C19.705,8.765 20.65,8.446 21.55,8.028 C21.675,8.338 21.779,8.672 21.893,9 L23.784,9 C23.595,8.371 23.384,7.765 23.143,7.188 C23.614,6.903 24.067,6.584 24.503,6.249 C25.343,7.067 26.075,7.992 26.682,9 L29.37,9 C26.766,3.682 21.313,0 15.002,0 C8.689,0 3.238,3.682 0.635,9 L3.321,9 C3.929,7.992 4.661,7.065 5.501,6.249 Z M23.109,5.073 C22.863,5.249 22.616,5.422 22.359,5.582 C22.04,4.995 21.693,4.438 21.318,3.936 C21.95,4.266 22.544,4.651 23.109,5.073 Z M20.794,6.422 C19.986,6.793 19.154,7.092 18.298,7.302 C18.059,5.574 17.714,3.906 17.223,2.63 C18.605,3.329 19.829,4.655 20.794,6.422 Z M14.82,2.379 C14.881,2.378 14.94,2.371 15.002,2.371 C15.064,2.371 15.123,2.378 15.184,2.379 C15.622,3.096 16.149,4.886 16.538,7.608 C16.029,7.668 15.517,7.706 15.003,7.706 C14.486,7.706 13.975,7.668 13.468,7.608 C13.855,4.886 14.382,3.096 14.82,2.379 Z M12.771,2.658 C12.286,3.93 11.944,5.585 11.706,7.303 C10.863,7.097 10.045,6.803 9.253,6.443 C10.214,4.692 11.421,3.366 12.771,2.658 Z M8.684,3.936 C8.31,4.438 7.965,4.996 7.642,5.582 C7.386,5.423 7.139,5.25 6.893,5.074 C7.459,4.651 8.052,4.266 8.684,3.936 Z" id="Shape" fill-rule="nonzero"></path>
                            <path d="M24.503,25.752 C24.065,25.416 23.609,25.098 23.143,24.811 C23.38,24.237 23.593,23.629 23.784,23 L21.893,23 C21.784,23.328 21.677,23.66 21.552,23.971 C20.651,23.553 19.704,23.237 18.739,23 L11.269,23 C10.314,23.234 9.384,23.547 8.491,23.955 C8.364,23.648 8.26,23.32 8.149,23 L6.223,23 C6.412,23.629 6.624,24.236 6.863,24.812 C6.393,25.097 5.942,25.416 5.502,25.75 C4.663,24.934 3.931,24.008 3.325,23 L0.638,23 C3.241,28.316 8.692,32 15.004,32 C21.316,32 26.768,28.316 29.371,23 L26.683,23 C26.075,24.008 25.343,24.934 24.503,25.752 Z M6.893,26.928 C7.139,26.752 7.387,26.578 7.642,26.42 C7.965,27.006 8.31,27.563 8.684,28.065 C8.052,27.734 7.459,27.35 6.893,26.928 Z M9.251,25.559 C10.043,25.203 10.861,24.906 11.704,24.701 C11.942,26.42 12.284,28.069 12.769,29.346 C11.421,28.635 10.214,27.307 9.251,25.559 Z M15.184,29.621 C15.123,29.623 15.064,29.629 15.002,29.629 C14.94,29.629 14.881,29.623 14.82,29.621 C14.382,28.904 13.854,27.113 13.466,24.392 C13.973,24.332 14.485,24.293 15.001,24.293 C15.518,24.293 16.029,24.332 16.537,24.392 C16.146,27.113 15.622,28.904 15.184,29.621 Z M17.223,29.369 C17.714,28.094 18.059,26.426 18.298,24.697 C19.154,24.908 19.986,25.207 20.794,25.578 C19.829,27.346 18.605,28.672 17.223,29.369 Z M21.318,28.064 C21.693,27.56 22.04,27.002 22.359,26.418 C22.616,26.578 22.863,26.752 23.109,26.928 C22.544,27.35 21.95,27.734 21.318,28.064 Z" id="Shape" fill-rule="nonzero"></path>
                            <path d="M3.795,19.18 L4.432,16.944 C4.601,16.348 4.731,15.761 4.848,14.967 L4.874,14.967 C5.004,15.747 5.121,16.321 5.277,16.944 L5.875,19.18 L7.734,19.18 L9.684,12.825 L7.748,12.825 L7.202,15.346 C7.059,16.075 6.929,16.789 6.838,17.517 L6.812,17.517 C6.682,16.788 6.513,16.076 6.344,15.359 L5.707,12.825 L4.147,12.825 L3.471,15.437 C3.315,16.06 3.133,16.79 3.003,17.517 L2.977,17.517 C2.873,16.788 2.743,16.086 2.613,15.423 L2.106,12.822 L0.09,12.822 L1.936,19.179 L3.795,19.179 L3.795,19.18 Z" id="Path"></path>
                            <path d="M17.314,15.344 C17.169,16.073 17.042,16.787 16.952,17.516 L16.925,17.516 C16.796,16.787 16.626,16.074 16.458,15.357 L15.818,12.823 L14.258,12.823 L13.582,15.435 C13.426,16.059 13.244,16.788 13.114,17.516 L13.088,17.516 C12.984,16.787 12.854,16.084 12.724,15.421 L12.217,12.82 L10.202,12.82 L12.048,19.177 L13.907,19.177 L14.544,16.942 C14.713,16.343 14.843,15.758 14.96,14.964 L14.986,14.964 C15.116,15.744 15.234,16.318 15.39,16.942 L15.988,19.177 L17.847,19.177 L19.794,12.82 L17.856,12.82 L17.314,15.344 Z" id="Path"></path>
                            <path d="M27.43,15.344 C27.286,16.073 27.157,16.787 27.067,17.516 L27.042,17.516 C26.913,16.787 26.742,16.074 26.573,15.357 L25.936,12.823 L24.374,12.823 L23.697,15.435 C23.542,16.059 23.359,16.788 23.228,17.516 L23.204,17.516 C23.1,16.787 22.971,16.084 22.841,15.421 L22.333,12.82 L20.316,12.82 L22.165,19.177 L24.021,19.177 L24.661,16.942 C24.829,16.343 24.96,15.758 25.077,14.964 L25.101,14.964 C25.23,15.744 25.347,16.318 25.503,16.942 L26.101,19.177 L27.96,19.177 L29.909,12.82 L27.971,12.82 L27.43,15.344 Z" id="Path"></path>
                        </g>
                    </g>
                </g>
            </g>
        </g>
    </g>
</svg>